HIERARCHY
ROOT Hips
{
	OFFSET -0.001795 -0.223333 0.028219
	CHANNELS 6 Xposition Yposition Zposition Zrotation Yrotation Xrotation 
	JOINT LeftUpLeg
	{
		OFFSET 0.069520 -0.091406 -0.006815
		CHANNELS 3 Zrotation Yrotation Xrotation
		JOINT LeftLeg
		{
			OFFSET 0.034277 -0.375199 -0.004496
			CHANNELS 3 Zrotation Yrotation Xrotation
			JOINT LeftFoot
			{
				OFFSET -0.013596 -0.397961 -0.043693
				CHANNELS 3 Zrotation Yrotation Xrotation
				JOINT LeftToe
				{
					OFFSET 0.026358 -0.055791 0.119288
					CHANNELS 3 Zrotation Yrotation Xrotation
					End Site
					{
						OFFSET 0.000000 0.000000 0.000000
					}
				}
			}
		}
	}
	JOINT RightUpLeg
	{
		OFFSET -0.067670 -0.090522 -0.004320
		CHANNELS 3 Zrotation Yrotation Xrotation
		JOINT RightLeg
		{
			OFFSET -0.038290 -0.382569 -0.008850
			CHANNELS 3 Zrotation Yrotation Xrotation
			JOINT RightFoot
			{
				OFFSET 0.015774 -0.398415 -0.042312
				CHANNELS 3 Zrotation Yrotation Xrotation
				JOINT RightToe
				{
					OFFSET -0.025372 -0.048144 0.123348
					CHANNELS 3 Zrotation Yrotation Xrotation
					End Site
					{
						OFFSET 0.000000 0.000000 0.000000
					}
				}
			}
		}
	}
	JOINT Spine
	{
		OFFSET -0.002533 0.108963 -0.026696
		CHANNELS 3 Zrotation Yrotation Xrotation
		JOINT Spine1
		{
			OFFSET 0.005487 0.135180 0.001092
			CHANNELS 3 Zrotation Yrotation Xrotation
			JOINT Spine2
			{
				OFFSET 0.001457 0.052922 0.025425
				CHANNELS 3 Zrotation Yrotation Xrotation
				JOINT Neck
				{
					OFFSET -0.002778 0.213870 -0.042857
					CHANNELS 3 Zrotation Yrotation Xrotation
					JOINT Head
					{
						OFFSET 0.005152 0.064970 0.051349
						CHANNELS 3 Zrotation Yrotation Xrotation
						End Site
						{
							OFFSET 0.000000 0.000000 0.000000
						}
					}
				}
				JOINT LeftShoulder
				{
					OFFSET 0.078845 0.121749 -0.034090
					CHANNELS 3 Zrotation Yrotation Xrotation
					JOINT LeftArm
					{
						OFFSET 0.090977 0.030469 -0.008868
						CHANNELS 3 Zrotation Yrotation Xrotation
						JOINT LeftForeArm
						{
							OFFSET 0.259612 -0.012772 -0.027456
							CHANNELS 3 Zrotation Yrotation Xrotation
							JOINT LeftHand
							{
								OFFSET 0.249234 0.008986 -0.001171
								CHANNELS 3 Zrotation Yrotation Xrotation
								End Site
								{
									OFFSET 0.000000 0.000000 0.000000
								}
							}
						}
					}
				}
				JOINT RightShoulder
				{
					OFFSET -0.081759 0.118833 -0.038615
					CHANNELS 3 Zrotation Yrotation Xrotation
					JOINT RightArm
					{
						OFFSET -0.096012 0.032551 -0.009143
						CHANNELS 3 Zrotation Yrotation Xrotation
						JOINT RightForeArm
						{
							OFFSET -0.253742 -0.013329 -0.021401
							CHANNELS 3 Zrotation Yrotation Xrotation
							JOINT RightHand
							{
								OFFSET -0.255298 0.007772 -0.005559
								CHANNELS 3 Zrotation Yrotation Xrotation
								End Site
								{
									OFFSET 0.000000 0.000000 0.000000
								}
							}
						}
					}
				}
			}
		}
	}
}
MOTION
Frames: 14
Frame Time: 0.050000
0.363785 0.935808 0.131347 -177.661280 17.841232 -175.123924 4.468873 -5.000654 -5.928367 1.249444 -3.538980 1.217879 64.953451 -48.495297 34.206913 0.000000 0.000000 0.000000 4.074050 -3.764778 3.141046 5.642729 -8.400991 -7.511721 45.474495 -13.416441 -1.764185 0.000000 0.000000 0.000000 0.355248 -0.742515 -1.863083 -10.495998 -19.760555 6.387495 6.726343 22.767399 6.477147 -2.406651 -17.927486 -11.586178 0.000000 0.000000 0.000000 -11.820697 -24.388162 -80.308101 -6.174609 56.520407 8.137256 -57.626252 -6.015263 3.752893 0.000000 0.000000 0.000000 12.779278 -6.705441 62.716183 -15.825286 45.100945 -6.634988 -115.236258 21.756562 -7.140105 0.000000 0.000000 0.000000 
0.362319 0.936132 0.132237 -177.551790 17.188898 -174.536272 4.226329 -4.887298 -6.433436 2.025049 -3.322611 0.694655 65.492034 -48.884265 32.991955 0.000000 0.000000 0.000000 4.789104 -3.418643 3.083939 4.849241 -7.597318 -8.815049 44.155786 -14.566621 -2.059971 0.000000 0.000000 0.000000 -0.062241 -1.023398 -3.024215 -13.384477 -22.133616 9.539914 9.178965 25.724495 5.402946 -3.034570 -18.214620 -11.468728 0.000000 0.000000 0.000000 -11.874617 -23.900454 -82.005698 -1.669791 56.547031 10.936541 -59.386177 -3.557210 3.201025 0.000000 0.000000 0.000000 12.436200 -6.280211 63.745757 -15.529250 44.130913 -6.330098 -115.727307 20.623312 -5.696862 0.000000 0.000000 0.000000 
0.360823 0.935787 0.133918 -177.675506 16.556298 -174.520944 4.513655 -5.134856 -6.131014 1.327815 -3.754273 -0.481032 65.795632 -49.179043 32.962131 0.000000 0.000000 0.000000 5.049780 -3.313127 2.987824 4.251116 -7.174338 -9.075756 44.182737 -15.283705 -3.051710 0.000000 0.000000 0.000000 -0.380112 -1.030605 -2.872883 -13.090509 -22.006215 8.980142 9.320868 25.517583 5.669244 -2.982779 -18.733673 -11.889143 0.000000 0.000000 0.000000 -10.746420 -23.358160 -84.545085 1.295297 57.348428 12.682212 -59.841956 -1.446981 2.102659 0.000000 0.000000 0.000000 11.137668 -6.765449 65.683730 -16.748827 45.517544 -6.579594 -115.464016 17.817058 -0.072661 0.000000 0.000000 0.000000 
0.359061 0.936150 0.135961 -177.646316 16.067534 -174.378917 4.623880 -5.241372 -5.986267 1.230923 -3.957363 -1.495135 65.499167 -49.227367 32.960855 0.000000 0.000000 0.000000 5.156146 -3.261613 2.799423 4.168740 -7.177646 -9.333695 43.755326 -15.685822 -3.041646 0.000000 0.000000 0.000000 -0.761511 -1.117743 -2.975016 -12.321303 -21.509683 8.088387 9.324857 24.650050 6.483575 -3.213101 -19.115580 -12.306333 0.000000 0.000000 0.000000 -9.804502 -22.862281 -86.558089 3.982403 58.206613 14.313484 -59.492964 0.322103 0.953237 0.000000 0.000000 0.000000 9.837385 -6.984814 67.352209 -18.096287 46.313667 -6.732187 -115.210064 15.409677 4.802078 0.000000 0.000000 0.000000 
0.357241 0.935613 0.138200 -177.732420 16.516350 -174.463887 4.388039 -5.012128 -6.392191 1.254936 -3.851862 -0.816582 66.244298 -49.576079 32.674657 0.000000 0.000000 0.000000 5.484304 -3.033291 2.603974 3.157492 -6.392476 -9.247111 43.726308 -15.890820 -3.798371 0.000000 0.000000 0.000000 -0.751136 -1.140052 -3.088854 -13.018101 -21.362384 8.126080 9.704762 24.996115 6.277447 -2.455030 -18.576175 -12.694244 0.000000 0.000000 0.000000 -9.798655 -23.105061 -85.985174 3.587188 57.683915 13.860000 -58.058619 0.354862 0.748012 0.000000 0.000000 0.000000 9.455586 -6.375591 67.854000 -19.841950 46.200939 -7.224101 -113.087577 14.914862 4.820292 0.000000 0.000000 0.000000 
0.355606 0.936016 0.140373 -177.751858 17.520202 -174.589417 4.034196 -4.711685 -6.459690 1.578727 -3.617456 -0.414633 65.644721 -49.387222 33.349660 0.000000 0.000000 0.000000 5.162232 -3.152338 2.724910 3.376419 -6.393799 -9.492815 43.168526 -15.176260 -2.557895 0.000000 0.000000 0.000000 -0.735668 -1.202329 -3.284664 -12.803815 -20.263339 7.082322 9.780915 24.350258 7.170954 -1.657720 -18.122663 -12.777550 0.000000 0.000000 0.000000 -9.911680 -22.782288 -85.530259 3.226099 58.128246 13.592653 -56.635415 0.215639 0.517163 0.000000 0.000000 0.000000 9.275481 -5.952765 67.890587 -22.827707 45.932033 -8.183775 -110.602003 13.238013 6.343378 0.000000 0.000000 0.000000 
0.354285 0.936031 0.142318 -177.729636 18.016509 -174.523389 4.029872 -4.680289 -6.426636 1.526318 -3.647905 -0.707682 65.263796 -49.347480 34.008033 0.000000 0.000000 0.000000 5.140050 -3.167616 2.916163 3.358960 -6.253052 -10.226252 42.466481 -14.949242 -1.707675 0.000000 0.000000 0.000000 -0.366202 -1.223417 -3.570043 -13.251505 -20.043146 7.130221 9.885787 24.514079 7.253006 -0.790123 -17.283507 -13.317490 0.000000 0.000000 0.000000 -10.201908 -22.759482 -85.092123 2.663151 57.879989 13.234494 -55.125142 1.104956 -0.030316 0.000000 0.000000 0.000000 8.785954 -5.338445 67.658525 -24.658771 45.641444 -8.552623 -109.795420 11.461197 8.891234 0.000000 0.000000 0.000000 
0.353192 0.936571 0.144064 -177.974004 17.683294 -174.483607 3.963335 -4.695952 -6.230827 1.241086 -3.929649 -1.688828 64.463185 -49.202894 34.370468 0.000000 0.000000 0.000000 5.452286 -3.068467 3.001993 2.405065 -5.621755 -10.946612 41.797900 -15.764692 -1.936432 0.000000 0.000000 0.000000 -0.550950 -1.378444 -4.082272 -13.747238 -20.443077 7.706991 10.287134 24.880163 7.341123 -0.186277 -17.171726 -13.519985 0.000000 0.000000 0.000000 -10.331214 -22.614309 -86.332791 5.405616 57.913672 15.194084 -52.295365 3.188652 -0.976795 0.000000 0.000000 0.000000 7.883244 -5.325226 67.964659 -27.059025 45.299470 -8.951351 -109.602118 9.287949 12.640854 0.000000 0.000000 0.000000 
0.352223 0.937112 0.146056 -177.909247 17.927122 -174.986027 4.180252 -4.845713 -5.680323 0.854672 -4.065514 -1.856922 63.429442 -48.598216 35.361004 0.000000 0.000000 0.000000 5.298031 -3.265831 3.516590 2.686484 -5.770459 -11.079748 41.712536 -15.541308 -1.289256 0.000000 0.000000 0.000000 -0.116710 -1.301534 -3.956442 -14.455181 -20.614556 8.038806 10.561552 25.405979 7.454523 0.181992 -17.310710 -13.138391 0.000000 0.000000 0.000000 -10.695095 -22.755443 -86.115440 5.503248 57.968524 15.433642 -50.433690 2.522224 -0.739128 0.000000 0.000000 0.000000 8.071448 -4.956758 68.667037 -30.024637 44.220655 -9.846784 -108.806354 6.316116 15.343008 0.000000 0.000000 0.000000 
0.351094 0.936518 0.148305 -178.164040 17.632743 -175.367063 4.248170 -4.988953 -5.134115 0.254815 -4.525831 -2.699954 63.405879 -48.668490 35.676713 0.000000 0.000000 0.000000 5.319031 -3.271861 3.462170 2.123409 -5.418998 -10.724989 42.409443 -15.938331 -2.528092 0.000000 0.000000 0.000000 -0.162430 -1.326652 -3.989651 -14.222343 -20.598611 7.882998 10.594145 25.476343 7.843351 -0.476865 -18.273505 -12.598377 0.000000 0.000000 0.000000 -10.785704 -22.635396 -87.923606 7.481046 58.883935 17.387201 -48.292044 2.203409 -0.618107 0.000000 0.000000 0.000000 7.552588 -5.222307 70.269725 -32.807091 44.235298 -10.694645 -108.365266 2.684998 19.801314 0.000000 0.000000 0.000000 
0.350076 0.936858 0.150730 -178.286226 17.408633 -175.266947 4.466489 -5.129406 -5.115177 -0.268997 -5.001810 -3.463862 62.483970 -48.496799 36.507109 0.000000 0.000000 0.000000 5.075409 -3.316874 3.176291 2.402441 -5.587656 -10.783465 42.001557 -15.913613 -2.195421 0.000000 0.000000 0.000000 -0.013158 -1.412144 -4.289630 -14.686249 -20.811386 8.178261 10.755701 25.979525 7.839037 -0.292127 -18.279802 -12.805488 0.000000 0.000000 0.000000 -10.508272 -22.703302 -88.690503 8.989101 59.243756 18.502065 -47.535626 2.286520 -0.790337 0.000000 0.000000 0.000000 7.419160 -5.432549 71.150085 -34.518601 44.382039 -11.320540 -108.295454 0.209025 22.872601 0.000000 0.000000 0.000000 
0.348968 0.936545 0.153263 -178.398361 17.081544 -175.683172 4.995997 -5.678272 -4.063074 -1.291889 -6.079426 -5.171169 61.065049 -47.986081 38.390675 0.000000 0.000000 0.000000 4.725704 -3.606253 3.481951 2.862917 -5.917316 -10.869827 42.382895 -15.792100 -2.227384 0.000000 0.000000 0.000000 -0.208000 -1.336635 -3.907474 -13.778441 -20.775474 7.838156 10.769683 25.362991 8.171193 -1.350953 -19.341341 -11.737543 0.000000 0.000000 0.000000 -11.258524 -22.899667 -89.007978 7.734437 58.804866 18.168708 -46.198771 1.853305 -0.201485 0.000000 0.000000 0.000000 7.247009 -5.241044 72.019194 -36.288636 44.660494 -12.018677 -105.896790 -2.548985 24.378239 0.000000 0.000000 0.000000 
0.347686 0.937120 0.156251 -178.555987 16.087008 -175.775706 5.391827 -6.065035 -3.688164 -2.021642 -7.120262 -6.592739 59.486084 -47.607174 39.515667 0.000000 0.000000 0.000000 4.627920 -3.685044 3.305818 2.910914 -6.037392 -10.851888 42.245367 -16.413057 -2.586192 0.000000 0.000000 0.000000 -0.291582 -1.410187 -3.972375 -12.797018 -20.586193 7.203828 10.154681 24.654062 8.605747 -1.919921 -20.063534 -11.892949 0.000000 0.000000 0.000000 -10.846303 -23.171760 -91.262603 8.962270 59.584563 19.718122 -44.988065 1.946237 -0.224286 0.000000 0.000000 0.000000 7.144725 -5.738198 75.256884 -40.276576 44.069807 -13.494931 -104.345269 -6.013066 26.383952 0.000000 0.000000 0.000000 
0.346363 0.936822 0.159219 -178.783207 15.503751 -176.272688 5.424321 -6.278865 -3.188230 -2.454243 -7.787289 -7.284702 58.864286 -47.325690 40.028855 0.000000 0.000000 0.000000 4.986818 -3.501470 3.085669 1.739807 -5.307044 -10.067996 42.994107 -17.340052 -4.577871 0.000000 0.000000 0.000000 -0.682406 -1.315511 -3.479474 -12.034665 -20.451848 6.607310 10.078406 23.861526 8.635783 -1.981453 -19.995268 -12.536316 0.000000 0.000000 0.000000 -10.651361 -22.868568 -92.896053 10.085158 60.320186 21.010337 -44.007959 1.782888 -0.199513 0.000000 0.000000 0.000000 6.302295 -5.552937 77.190915 -43.097232 45.137134 -14.757819 -102.151286 -8.208785 27.397321 0.000000 0.000000 0.000000 
